<?xml version="1.0" encoding="utf-8"?>
<!-- Generator: Adobe Illustrator 19.1.0, SVG Export Plug-In . SVG Version: 6.00 Build 0)  -->
<!DOCTYPE svg PUBLIC "-//W3C//DTD SVG 1.1//EN" "http://www.w3.org/Graphics/SVG/1.1/DTD/svg11.dtd">
<svg version="1.1" id="Layer_1" xmlns="http://www.w3.org/2000/svg" xmlns:xlink="http://www.w3.org/1999/xlink" x="0px" y="0px"
   viewBox="-79 -60 800 681" style="enable-background:new -79 -60 800 681;" xml:space="preserve">
<style type="text/css">
  .st0{fill:#FFFFFF;}
</style>
<g>
  <path class="st0" d="M311.6-53.7c-33.1,0.2-32.1,0.1-55.5,2.3c-69.5,6.6-135,29.9-187.9,67c-48.1,33.6-86.9,80.5-108.7,131
    c-37.1,86.3-32.4,181.1,13.6,270.2c21.5,41.7,48.9,71.5,92,99.9c68.2,44.9,167.1,75.1,292,89.3c39.1,4.5,72.3,6.7,120.4,8.2
    c34.8,1,51.6,0.9,106.6-1.2c67-2.4,100.3-7.6,113.4-17.6c4.3-3.4,9.1-10.9,9.1-14.6c0-13.5-25.6-32.2-64.1-47
    c-10.3-4-19.7-9.2-24.2-13.5c-7.3-6.9-9-16.7-4.8-27.5c2.9-7.4,11.9-20.9,21-31.5c3.9-4.5,10.2-11.8,14-16.2
    c22.4-26,42.5-69.4,54.1-117c7.9-32.3,5.6-85.6-5.5-129.6c-13.8-54.4-39.7-99.8-80.5-140.4c-28-28.1-55-47.5-91-65.5
    c-49.8-25-103.5-39.5-166.5-45C347.9-53.4,331.7-53.8,311.6-53.7z"/>
</g>
</svg>
